<svg width="92" height="70" viewBox="0 0 92 70" fill="none" xmlns="http://www.w3.org/2000/svg">
<path d="M53.8688 5.41469C54.0365 5.14771 54.4255 5.1477 54.5931 5.41469L81.8535 48.8348C82.0323 49.1196 81.8276 49.4898 81.4914 49.4898H26.9706C26.6343 49.4898 26.4296 49.1196 26.6084 48.8348L53.8688 5.41469Z" stroke="#DFE3F7" stroke-width="5.14479"/>
<path d="M54.5931 64.0015C54.4255 64.2685 54.0365 64.2685 53.8688 64.0015L26.6084 20.5814C26.4296 20.2967 26.6343 19.9265 26.9706 19.9265H81.4914C81.8276 19.9265 82.0323 20.2967 81.8535 20.5814L54.5931 64.0015Z" stroke="#DFE3F7" stroke-width="5.14479"/>
<rect width="22.3108" height="4.6196" transform="matrix(0.506929 -0.861988 0.869971 0.493103 31.1394 37.0547)" fill="#DFE3F7"/>
<rect width="21.9905" height="4.14779" transform="matrix(0.506929 -0.861988 0.869971 0.493103 60.5669 51.462)" fill="#DFE3F7"/>
<rect width="22.0065" height="4.262" transform="matrix(0.544731 0.838611 -0.847598 0.530639 37.937 34.7081)" fill="#DFE3F7"/>
<rect x="43.717" y="47.3409" width="22.2953" height="4.20622" fill="#DFE3F7"/>
<rect y="58.3952" width="46.7903" height="10.9753" rx="3" transform="rotate(-30 0 58.3952)" fill="#DFE3F7"/>
<rect width="21.9905" height="4.07487" transform="matrix(0.506929 0.861988 -0.869971 0.493103 64.3053 16.2828)" fill="#DFE3F7"/>
<path d="M68.9883 34.5C68.9883 42.1622 62.5673 48.5 54.4883 48.5C46.4093 48.5 39.9883 42.1622 39.9883 34.5C39.9883 26.8378 46.4093 20.5 54.4883 20.5C62.5673 20.5 68.9883 26.8378 68.9883 34.5Z" stroke="#DFE3F7" stroke-width="5"/>
</svg>
