<svg width="67" height="67" viewBox="0 0 67 67" fill="none" xmlns="http://www.w3.org/2000/svg">
<circle cx="33.3093" cy="33.3093" r="33.3093" fill="#373A48"/>
<path d="M31.2844 45.9551C34.4512 45.9551 37.4083 44.9249 39.812 43.2079L48.8548 52.2507C49.2745 52.6704 49.8278 52.8803 50.4001 52.8803C51.6402 52.8803 52.5368 51.9264 52.5368 50.7054C52.5368 50.1331 52.346 49.5989 51.9263 49.1792L42.9408 40.1746C44.8295 37.6945 45.955 34.623 45.955 31.2844C45.955 23.2146 39.3542 16.6138 31.2844 16.6138C23.1955 16.6138 16.6137 23.2146 16.6137 31.2844C16.6137 39.3543 23.1955 45.9551 31.2844 45.9551ZM31.2844 42.7882C24.9697 42.7882 19.7806 37.58 19.7806 31.2844C19.7806 24.9888 24.9697 19.7807 31.2844 19.7807C37.58 19.7807 42.7881 24.9888 42.7881 31.2844C42.7881 37.58 37.58 42.7882 31.2844 42.7882Z" fill="white"/>
</svg>
