<svg width="518" height="480" viewBox="0 0 518 480" fill="none" xmlns="http://www.w3.org/2000/svg">
<path d="M223.273 107.394C223.326 105.969 224.85 105.089 226.11 105.756L431.105 214.195C432.449 214.906 432.485 216.819 431.167 217.58L217.587 340.89C216.27 341.651 214.631 340.664 214.687 339.144L223.273 107.394Z" stroke="#DFE3F7" stroke-width="23.2722"/>
<path d="M358.617 335.265C358.564 336.69 357.04 337.57 355.78 336.903L150.785 228.464C149.441 227.753 149.405 225.84 150.723 225.079L364.303 101.768C365.62 101.008 367.259 101.995 367.203 103.515L358.617 335.265Z" stroke="#DFE3F7" stroke-width="23.2722"/>
<rect width="100.922" height="20.8965" transform="matrix(0.00801942 -0.999968 0.999968 -0.00794598 205.793 282.749)" fill="#DFE3F7"/>
<rect width="99.4728" height="18.7623" transform="matrix(0.00801942 -0.999968 0.999968 -0.00794598 353.658 272.631)" fill="#DFE3F7"/>
<rect width="99.5451" height="19.2789" transform="matrix(0.891057 0.453892 -0.468722 0.883346 227.115 258.182)" fill="#DFE3F7"/>
<rect x="278.329" y="294.597" width="100.851" height="19.0266" transform="rotate(-30 278.329 294.597)" fill="#DFE3F7"/>
<rect x="132.073" y="436.777" width="211.653" height="49.6461" rx="13.5703" transform="rotate(-60 132.073 436.777)" fill="white"/>
<rect width="99.4728" height="18.4324" transform="matrix(0.870007 0.493039 -0.506866 0.862025 288.738 126.364)" fill="#DFE3F7"/>
<path d="M348.285 187.137C365.614 217.153 354.795 256.504 323.146 274.776C291.497 293.048 252.009 282.743 234.68 252.727C217.35 222.711 228.169 183.361 259.818 165.088C291.467 146.816 330.955 157.122 348.285 187.137Z" stroke="white" stroke-width="22.6172"/>
</svg>
